<svg width="25" height="24" viewBox="0 0 25 24" fill="none" xmlns="http://www.w3.org/2000/svg">
<path d="M11.3835 14.95L9.5335 16.8C9.1435 17.19 8.5235 17.19 8.1235 16.81C8.0135 16.7 7.9035 16.6 7.7935 16.49C6.7635 15.45 5.8335 14.36 5.0035 13.22C4.1835 12.08 3.5235 10.94 3.0435 9.81C2.5735 8.67 2.3335 7.58 2.3335 6.54C2.3335 5.86 2.4535 5.21 2.6935 4.61C2.9335 4 3.3135 3.44 3.8435 2.94C4.4835 2.31 5.1835 2 5.9235 2C6.2035 2 6.4835 2.06 6.7335 2.18C6.9935 2.3 7.2235 2.48 7.4035 2.74L9.7235 6.01C9.9035 6.26 10.0335 6.49 10.1235 6.71C10.2135 6.92 10.2635 7.13 10.2635 7.32C10.2635 7.56 10.1935 7.8 10.0535 8.03C9.9235 8.26 9.7335 8.5 9.4935 8.74L8.7335 9.53C8.6235 9.64 8.5735 9.77 8.5735 9.93C8.5735 10.01 8.5835 10.08 8.6035 10.16C8.6335 10.24 8.6635 10.3 8.6835 10.36C8.8635 10.69 9.1735 11.12 9.6135 11.64C10.0635 12.16 10.5435 12.69 11.0635 13.22C11.1635 13.32 11.2735 13.42 11.3735 13.52C11.7735 13.91 11.7835 14.55 11.3835 14.95Z" fill="#FAFAFA"/>
<path d="M22.3036 18.33C22.3036 18.61 22.2536 18.9 22.1536 19.18C22.1236 19.26 22.0936 19.34 22.0536 19.42C21.8836 19.78 21.6636 20.12 21.3736 20.44C20.8836 20.98 20.3436 21.37 19.7336 21.62C19.7236 21.62 19.7136 21.63 19.7036 21.63C19.1136 21.87 18.4736 22 17.7836 22C16.7636 22 15.6736 21.76 14.5236 21.27C13.3736 20.78 12.2236 20.12 11.0836 19.29C10.6936 19 10.3036 18.71 9.93359 18.4L13.2036 15.13C13.4836 15.34 13.7336 15.5 13.9436 15.61C13.9936 15.63 14.0536 15.66 14.1236 15.69C14.2036 15.72 14.2836 15.73 14.3736 15.73C14.5436 15.73 14.6736 15.67 14.7836 15.56L15.5436 14.81C15.7936 14.56 16.0336 14.37 16.2636 14.25C16.4936 14.11 16.7236 14.04 16.9736 14.04C17.1636 14.04 17.3636 14.08 17.5836 14.17C17.8036 14.26 18.0336 14.39 18.2836 14.56L21.5936 16.91C21.8536 17.09 22.0336 17.3 22.1436 17.55C22.2436 17.8 22.3036 18.05 22.3036 18.33Z" fill="#FAFAFA"/>
</svg>
