<svg width="25" height="24" viewBox="0 0 25 24" fill="none" xmlns="http://www.w3.org/2000/svg">
<path d="M7.6226 4.90749C10.7572 4.63501 13.9096 4.635 17.0442 4.90749L18.5545 5.03877C19.5598 5.12617 20.4209 5.72584 20.8671 6.58362C20.9241 6.69335 20.8813 6.82621 20.7762 6.89132L14.5102 10.7703C13.1664 11.6022 11.4718 11.6196 10.1111 10.8156L3.80331 7.08821C3.7014 7.02799 3.65462 6.90403 3.70055 6.79493C4.10871 5.82536 5.02634 5.13318 6.11237 5.03878L7.6226 4.90749Z" fill="#FAFAFA"/>
<path d="M3.69555 8.76673C3.53958 8.67457 3.34058 8.77375 3.3224 8.95399C3.06867 11.4696 3.13008 14.009 3.50663 16.5131C3.70515 17.8332 4.78256 18.8453 6.1125 18.9609L7.62273 19.0922C10.7574 19.3647 13.9098 19.3647 17.0444 19.0922L18.5547 18.9609C19.8846 18.8453 20.962 17.8332 21.1605 16.5131C21.5481 13.9361 21.6018 11.3215 21.3218 8.73413C21.3021 8.55261 21.0998 8.45526 20.9445 8.55136L15.3 12.0456C13.4818 13.1711 11.1892 13.1947 9.34817 12.1069L3.69555 8.76673Z" fill="#FAFAFA"/>
</svg>
