<svg width="24" height="25" viewBox="0 0 24 25" fill="none" xmlns="http://www.w3.org/2000/svg">
<path d="M19 3.83887H5C3.895 3.83887 3 4.73387 3 5.83887V19.8389C3 20.9439 3.895 21.8389 5 21.8389H12.621V14.8779H10.278V12.1529H12.621V10.1479C12.621 7.82387 14.042 6.55687 16.116 6.55687C16.815 6.55487 17.513 6.59087 18.208 6.66187V9.09187H16.78C15.65 9.09187 15.43 9.62587 15.43 10.4139V12.1489H18.13L17.779 14.8739H15.414V21.8389H19C20.105 21.8389 21 20.9439 21 19.8389V5.83887C21 4.73387 20.105 3.83887 19 3.83887Z" fill="#FAFAFA"/>
</svg>
