<svg width="24" height="25" viewBox="0 0 24 25" fill="none" xmlns="http://www.w3.org/2000/svg">
<path d="M8 3.83887C5.239 3.83887 3 6.07787 3 8.83887V16.8389C3 19.5999 5.239 21.8389 8 21.8389H16C18.761 21.8389 21 19.5999 21 16.8389V8.83887C21 6.07787 18.761 3.83887 16 3.83887H8ZM18 5.83887C18.552 5.83887 19 6.28687 19 6.83887C19 7.39087 18.552 7.83887 18 7.83887C17.448 7.83887 17 7.39087 17 6.83887C17 6.28687 17.448 5.83887 18 5.83887ZM12 7.83887C14.761 7.83887 17 10.0779 17 12.8389C17 15.5999 14.761 17.8389 12 17.8389C9.239 17.8389 7 15.5999 7 12.8389C7 10.0779 9.239 7.83887 12 7.83887ZM12 9.83887C11.2044 9.83887 10.4413 10.1549 9.87868 10.7175C9.31607 11.2802 9 12.0432 9 12.8389C9 13.6345 9.31607 14.3976 9.87868 14.9602C10.4413 15.5228 11.2044 15.8389 12 15.8389C12.7956 15.8389 13.5587 15.5228 14.1213 14.9602C14.6839 14.3976 15 13.6345 15 12.8389C15 12.0432 14.6839 11.2802 14.1213 10.7175C13.5587 10.1549 12.7956 9.83887 12 9.83887Z" fill="#FAFAFA"/>
</svg>
