<svg width="24" height="25" viewBox="0 0 24 25" fill="none" xmlns="http://www.w3.org/2000/svg">
<path d="M19 3.83887H5C3.895 3.83887 3 4.73387 3 5.83887V19.8389C3 20.9439 3.895 21.8389 5 21.8389H19C20.105 21.8389 21 20.9439 21 19.8389V5.83887C21 4.73387 20.105 3.83887 19 3.83887ZM9 17.8389H6.477V10.8389H9V17.8389ZM7.694 9.55587C6.923 9.55587 6.408 9.04187 6.408 8.35587C6.408 7.66987 6.922 7.15587 7.779 7.15587C8.55 7.15587 9.065 7.66987 9.065 8.35587C9.065 9.04187 8.551 9.55587 7.694 9.55587ZM18 17.8389H15.558V14.0129C15.558 12.9549 14.907 12.7109 14.663 12.7109C14.419 12.7109 13.605 12.8739 13.605 14.0129C13.605 14.1759 13.605 17.8389 13.605 17.8389H11.082V10.8389H13.605V11.8159C13.93 11.2459 14.581 10.8389 15.802 10.8389C17.023 10.8389 18 11.8159 18 14.0129V17.8389Z" fill="#FAFAFA"/>
</svg>
