<svg width="25" height="24" viewBox="0 0 25 24" fill="none" xmlns="http://www.w3.org/2000/svg">
<g clip-path="url(#clip0_122_2522)">
<path d="M20.9536 8.45C19.9036 3.83 15.8736 1.75 12.3336 1.75C12.3336 1.75 12.3336 1.75 12.3236 1.75C8.79359 1.75 4.75359 3.82 3.70359 8.44C2.53359 13.6 5.69359 17.97 8.55359 20.72C9.61359 21.74 10.9736 22.25 12.3336 22.25C13.6936 22.25 15.0536 21.74 16.1036 20.72C18.9636 17.97 22.1236 13.61 20.9536 8.45ZM12.3336 13.46C10.5936 13.46 9.18359 12.05 9.18359 10.31C9.18359 8.57 10.5936 7.16 12.3336 7.16C14.0736 7.16 15.4836 8.57 15.4836 10.31C15.4836 12.05 14.0736 13.46 12.3336 13.46Z" fill="#FAFAFA"/>
</g>
<defs>
<clipPath id="clip0_122_2522">
<rect width="24" height="24" fill="white" transform="translate(0.333496)"/>
</clipPath>
</defs>
</svg>
