<svg width="24" height="25" viewBox="0 0 24 25" fill="none" xmlns="http://www.w3.org/2000/svg">
<path d="M10.053 8.82687L15.684 16.8509H14.187L8.566 8.82687H10.053ZM21 6.83887V18.8389C21 20.4959 19.657 21.8389 18 21.8389H6C4.343 21.8389 3 20.4959 3 18.8389V6.83887C3 5.18187 4.343 3.83887 6 3.83887H18C19.657 3.83887 21 5.18187 21 6.83887ZM17.538 17.8389L13.352 11.8489L16.774 7.83887H15.463L12.759 10.9989L10.552 7.83887H6.702L10.643 13.4719L6.906 17.8389H8.239L11.24 14.3229L13.698 17.8389H17.538Z" fill="#FAFAFA"/>
</svg>
